<?xml version="1.0" standalone="no"?>
<!DOCTYPE svg PUBLIC "-//W3C//DTD SVG 20010904//EN"
 "http://www.w3.org/TR/2001/REC-SVG-20010904/DTD/svg10.dtd">
<svg version="1.0" xmlns="http://www.w3.org/2000/svg"
 width="260.000000pt" height="260.000000pt" viewBox="0 0 260.000000 260.000000"
 preserveAspectRatio="xMidYMid meet">
<metadata>
Created by potrace 1.11, written by Peter Selinger 2001-2013
</metadata>
<g transform="translate(0.000000,260.000000) scale(0.100000,-0.100000)"
fill="#000000" stroke="none">
<path d="M52 2580 c-18 -11 -37 -32 -42 -46 -6 -16 -10 -474 -10 -1237 0
-1194 0 -1212 20 -1245 11 -18 32 -37 46 -42 35 -14 2433 -14 2468 0 14 5 35
24 46 42 20 33 20 51 20 1248 0 1197 0 1215 -20 1248 -11 18 -32 37 -46 42
-16 6 -474 10 -1237 10 -1194 0 -1212 0 -1245 -20z m2435 -1280 l0 -1189
-1188 0 -1187 1 0 1188 0 1188 1188 0 1187 0 0 -1188z"/>
<path d="M1635 2322 c-20 -3 -20 -10 -19 -347 l2 -345 -32 -1 c-17 0 -120 0
-228 0 -151 1 -198 -2 -199 -12 -3 -70 -1 -199 4 -204 4 -3 107 -6 230 -5
l223 1 1 -140 c1 -136 1 -139 -20 -140 -12 0 -127 -1 -254 -1 l-233 -1 -1 -71
c-1 -76 1 -139 5 -144 2 -1 115 -2 253 -3 l251 0 0 -277 c0 -152 1 -290 1
-307 l1 -30 93 2 c50 1 104 2 120 2 l27 1 0 305 0 304 183 0 c100 0 221 0 268
0 l87 1 -1 109 -1 109 -265 0 -266 0 -3 140 -3 141 213 0 c117 0 224 0 238 0
24 1 25 3 23 68 -1 38 -2 87 -2 110 l-1 42 -207 0 c-115 0 -220 1 -235 1 l-28
0 0 345 0 345 -27 1 c-98 3 -181 4 -198 1z"/>
<path d="M329 1648 c-1 -337 -2 -627 -4 -644 -15 -174 -43 -318 -86 -441 -17
-48 -35 -94 -39 -102 -5 -10 12 -31 59 -70 36 -31 77 -66 90 -78 14 -12 28
-20 32 -18 27 17 125 320 144 445 19 131 24 170 24 206 1 31 1 31 79 44 42 8
82 14 87 16 6 1 30 5 55 9 l46 7 -1 -229 c-1 -125 -5 -238 -9 -249 -9 -28 -30
-33 -127 -28 l-81 4 7 -29 c3 -16 16 -62 29 -103 l22 -73 124 1 c140 2 181 13
224 64 14 17 30 48 35 68 6 22 9 392 9 925 l0 887 -359 0 -359 0 -1 -612z
m486 220 c0 -98 -3 -178 -8 -178 -5 0 -45 9 -90 19 -45 11 -99 22 -119 26
l-38 6 0 155 0 155 127 -3 128 -3 0 -177z m-115 -349 c58 -12 107 -24 110 -26
6 -5 7 -242 1 -252 -8 -11 -98 -31 -208 -47 l-43 -6 0 182 c0 168 1 181 18
177 9 -3 64 -15 122 -28z"/>
<path d="M2103 2248 c-1 -40 -79 -286 -123 -390 -17 -39 -29 -72 -28 -72 2 -1
52 -18 113 -37 l110 -36 18 41 c43 97 137 398 137 441 0 7 -45 24 -99 38 -113
30 -128 32 -128 15z"/>
<path d="M1285 2203 c-44 -13 -88 -26 -98 -28 -35 -8 -34 -17 14 -136 27 -67
64 -167 81 -224 28 -91 34 -103 52 -99 96 17 196 48 196 60 0 36 -139 427
-158 445 -4 4 -43 -4 -87 -18z"/>
</g>
</svg>
