<svg viewBox="0 0 60 60" xmlns="http://www.w3.org/2000/svg"><g fill="#08517c"><path d="m33.78 2.75a5.49 5.49 0 0 0 -4.07 1.69 5.72 5.72 0 0 0 -1.63 4.89 5.18 5.18 0 0 0 1.12 2.67 5.78 5.78 0 0 0 9.21 0 5.17 5.17 0 0 0 1.11-2.7 5.71 5.71 0 0 0 -1.63-4.88 5.54 5.54 0 0 0 -4.11-1.67z"/><path d="m35.16 20.85-14.16 2.09a.78.78 0 0 0 -.62.54l-.38 1.11h1.42a2.94 2.94 0 0 1 2 .67 2 2 0 0 1 .74 1.53 16.41 16.41 0 0 1 -.78 4.1l-5.38 18.77a13.4 13.4 0 0 0 -.67 3.7 4.8 4.8 0 0 0 1.47 3.64 5.68 5.68 0 0 0 4.08 1.44q6.45 0 12.22-9.66a.8.8 0 0 0 -.28-1.1.81.81 0 0 0 -1.07.25 21.91 21.91 0 0 1 -3.83 4.64 2 2 0 0 1 -1.34.59 1 1 0 0 1 -.74-.37 1.15 1.15 0 0 1 -.36-.81 15.19 15.19 0 0 1 .67-3.15l7.78-27a.8.8 0 0 0 -.77-.98z"/></g></svg>