<svg viewBox="0 0 60 60" xmlns="http://www.w3.org/2000/svg"><g fill="#08517c"><path d="m21.38 15.32a1.08 1.08 0 0 0 -1.11-1.14 10.67 10.67 0 0 0 -4.15 1.38l5.26 4.12z"/><path d="m11 21.13-.11-.13-.05.09h-5.3a3.45 3.45 0 0 0 -3.44 3.48v10.84a3.45 3.45 0 0 0 3.44 3.44h5.3c2.09 3.86 5.5 6.52 9.42 6.94a1.07 1.07 0 0 0 1.12-1.14v-15.4l-6.18-4.83z"/><path d="m30.3 20.41-1.41-1.41-2.83 2.83 1.41 1.41a9.4 9.4 0 0 1 1.88 2.7l4.9 3.84a13.43 13.43 0 0 0 -3.95-9.37z"/><path d="m27.47 36.74-1.41 1.42 2.83 2.84 1.41-1.41a13.7 13.7 0 0 0 1.66-2l-3.16-2.52a9.12 9.12 0 0 1 -1.33 1.67z"/><path d="m38.57 12.88-1.41-1.42-2.83 2.83 1.41 1.41a20.2 20.2 0 0 1 5.26 19.35l3.38 2.65a24.21 24.21 0 0 0 -5.81-24.82z"/><path d="m35.74 44.27-1.41 1.42 2.83 2.82 1.41-1.41a25 25 0 0 0 2.24-2.62l-3.15-2.48a19.46 19.46 0 0 1 -1.92 2.27z"/><path d="m57.56 30a32.56 32.56 0 0 0 -9.56-23.19l-1.46-1.41-2.82 2.83 1.41 1.41a28.81 28.81 0 0 1 5.52 33l3.21 2.52a32.71 32.71 0 0 0 3.7-15.16z"/><path d="m45.13 50.34-1.41 1.41 2.82 2.83 1.46-1.42c.57-.57 1.12-1.17 1.65-1.78l-3.15-2.47c-.5.48-.91.96-1.37 1.43z"/><path d="m49.69 44.41-6.07-4.76-3.27-2.56-6.28-4.92-3.84-3.01-8.85-6.94-6.99-5.47-5.34-4.19-2.18 2.78 5.09 3.99 9.42 7.38 8.31 6.52 3.26 2.55 5.82 4.57 3.18 2.48 5.77 4.53 3.15 2.47 2.03 1.59 2.18-2.78-2.21-1.74z"/></g></svg>