<svg viewBox="0 0 60 60" xmlns="http://www.w3.org/2000/svg"><g fill="#08517c"><path d="m20.27 14.18c-3.93.43-7.34 3.09-9.43 7h-5.3a3.45 3.45 0 0 0 -3.44 3.39v10.84a3.45 3.45 0 0 0 3.44 3.44h5.3c2.09 3.86 5.5 6.52 9.42 6.94a1.07 1.07 0 0 0 1.12-1.14v-29.33a1.08 1.08 0 0 0 -1.11-1.14z"/><path d="m28.89 19-2.83 2.83 1.41 1.41a9.55 9.55 0 0 1 0 13.51l-1.41 1.42 2.83 2.83 1.41-1.41a13.57 13.57 0 0 0 0-19.16z"/><path d="m38.57 12.88-1.41-1.42-2.83 2.83 1.41 1.41a20.22 20.22 0 0 1 0 28.57l-1.41 1.42 2.83 2.82 1.41-1.41a24.23 24.23 0 0 0 0-34.22z"/><path d="m48 6.81-1.46-1.41-2.82 2.83 1.41 1.41a28.78 28.78 0 0 1 0 40.7l-1.41 1.41 2.82 2.83 1.46-1.42a32.77 32.77 0 0 0 0-46.35z"/></g></svg>