<svg viewBox="0 0 60 60" xmlns="http://www.w3.org/2000/svg"><path d="m39.34 19.29a8.72 8.72 0 0 0 13.89 0 7.91 7.91 0 0 0 1.68-4.07 8.69 8.69 0 0 0 -2.46-7.37 8.75 8.75 0 0 0 -12.35 0 8.66 8.66 0 0 0 -2.45 7.38 7.2 7.2 0 0 0 .19 1.05l-17.76 8.19c-.15-.18-.29-.36-.46-.53a8.39 8.39 0 0 0 -6.21-2.55 8.31 8.31 0 0 0 -6.14 2.55 8.66 8.66 0 0 0 -2.45 7.38 7.9 7.9 0 0 0 1.69 4.09 8.53 8.53 0 0 0 6.9 3.43 8.51 8.51 0 0 0 6.66-3.08l17.79 8.24a9.58 9.58 0 0 0 -.21 3.45 7.9 7.9 0 0 0 1.69 4.09 8.72 8.72 0 0 0 13.89 0 7.91 7.91 0 0 0 1.68-4.07 8.69 8.69 0 0 0 -2.46-7.37 8.75 8.75 0 0 0 -12.35 0 10.08 10.08 0 0 0 -1 1.21l-17.49-8.1a7.45 7.45 0 0 0 .46-1.86 9.56 9.56 0 0 0 -.46-4.25l17.51-8.1a3.78 3.78 0 0 0 .22.29z" fill="#08517c"/></svg>